<?xml version="1.0" standalone="no"?>
<!DOCTYPE svg PUBLIC "-//W3C//DTD SVG 20010904//EN"
 "http://www.w3.org/TR/2001/REC-SVG-20010904/DTD/svg10.dtd">
<svg version="1.0" xmlns="http://www.w3.org/2000/svg"
 width="180.000000pt" height="180.000000pt" viewBox="0 0 180.000000 180.000000"
 preserveAspectRatio="xMidYMid meet">
<metadata>
Created by potrace 1.15, written by Peter Selinger 2001-2017
</metadata>
<g transform="translate(0.000000,180.000000) scale(0.100000,-0.100000)"
fill="#000000" stroke="none">
<path d="M852 1640 c-23 -38 -42 -71 -42 -74 0 -2 18 -34 40 -70 22 -36 40
-69 40 -72 0 -11 -137 6 -218 27 -81 20 -198 79 -261 130 -22 17 -44 28 -50
24 -17 -10 15 -63 80 -130 l58 -60 -132 -3 c-72 -2 -135 -6 -139 -8 -4 -3 -8
-304 -8 -670 l0 -664 675 0 675 0 0 670 0 670 -102 1 c-57 1 -118 1 -135 1
-18 0 -33 1 -33 3 0 2 24 26 53 54 59 56 104 126 87 136 -6 4 -35 -11 -64 -33
-73 -55 -165 -100 -251 -122 -77 -20 -215 -37 -215 -26 0 3 18 35 40 72 l41
65 -41 75 c-23 41 -45 74 -49 74 -4 0 -27 -31 -49 -70z m-177 -221 c64 -17
109 -22 225 -21 171 0 258 18 385 81 l80 40 -53 -48 c-93 -85 -227 -138 -372
-148 -166 -11 -340 45 -450 146 l-55 50 80 -40 c44 -21 116 -49 160 -60z m-85
-55 c30 -15 73 -32 95 -40 36 -11 20 -13 -152 -13 l-193 -1 0 -562 0 -563 560
3 560 2 0 560 0 560 -192 1 c-171 0 -188 2 -153 13 22 7 63 25 92 39 49 25 60
27 193 27 l140 0 0 -645 0 -645 -645 0 -645 0 0 638 c0 351 3 642 7 645 3 4
67 7 142 7 126 0 140 -2 191 -26z m422 -95 c29 -6 85 -26 123 -44 329 -158
401 -599 140 -860 -183 -184 -473 -205 -689 -51 -139 99 -217 253 -217 430 -1
150 52 278 159 383 126 125 308 178 484 142z"/>
<path d="M705 938 c-104 -176 -207 -347 -227 -380 -21 -32 -38 -61 -38 -63 0
-3 207 -5 461 -5 l461 0 -20 33 c-11 17 -58 97 -104 177 -227 386 -332 560
-337 560 -3 0 -91 -145 -196 -322z"/>
</g>
</svg>
